<?xml version="1.0" encoding="UTF-8"?>
<svg id="Layer_1" data-name="Layer 1" xmlns="http://www.w3.org/2000/svg" xmlns:xlink="http://www.w3.org/1999/xlink" viewBox="0 0 525.9130434783 352.7639581318">
  <defs>
    <style>
      .cls-1 {
        fill: none;
      }

      .cls-1, .cls-2 {
        stroke-linecap: round;
        stroke-linejoin: round;
      }

      .cls-1, .cls-2, .cls-3 {
        stroke: #d2ff4d;
      }

      .cls-1, .cls-3 {
        stroke-width: 2px;
      }

      .cls-4 {
        filter: url(#drop-shadow-14);
      }

      .cls-5 {
        fill: #74b2bb;
      }

      .cls-6 {
        fill: #38403b;
      }

      .cls-2 {
        fill: #2e3c41;
        stroke-width: 3px;
      }

      .cls-7, .cls-3 {
        fill: #d2ff4d;
      }

      .cls-3 {
        stroke-miterlimit: 10;
      }

      .cls-8 {
        clip-path: url(#clippath);
      }
    </style>
    <filter id="drop-shadow-14" x="79.6956521739" y="55.5838679552" width="393.9926741457" height="251" filterUnits="userSpaceOnUse">
      <feOffset dx="5" dy="5"/>
      <feGaussianBlur result="blur" stdDeviation="3"/>
      <feFlood flood-color="#000" flood-opacity=".45"/>
      <feComposite in2="blur" operator="in"/>
      <feComposite in="SourceGraphic"/>
    </filter>
    <clipPath id="clippath">
      <rect class="cls-1" x="355.5347298499" y="120.2761521645" width="67.6474028361" height="112.9450951822"/>
    </clipPath>
  </defs>
  <rect class="cls-2" x="8.4914621658" y="12.0316594002" width="508.9301191467" height="328.7006393315" rx="136.7331702044" ry="136.7331702044"/>
  <g class="cls-4">
    <g>
      <path class="cls-3" d="M121.9722058025,210.5782375274h56.8843533821c.1761608226,0,2.2830825746,2.0898229657,2.4864660942,2.4961049987.7769892526,1.5521256289.7623385318,19.0215949421-.0040956483,20.7469783666-.3001401002.6756702236-1.8998014185,2.1274141727-2.6401517418,2.342419351l-88.7427473907.2024587143c-1.4620634854.132089046-3.535457229-1.2778637133-4.0985500623-2.5448780629-.8582419439-1.9311289261-.6943102107-14.9591024488-.4617074796-17.8828766491.0958718612-1.2050919303.0092429588-2.396910488.6659804618-3.4861616043,16.573023671-24.4529610091,37.0255365342-47.6352355752,53.2017170423-72.1929998395,1.0406854604-1.5799099298,2.6085041696-3.2776247264,2.639019739-5.2500402788h-52.7322107995c-.2649323088,0-1.8778511813-.9698194055-2.1354479198-1.3809470721-1.1579363016-1.8480810458-1.1158732607-17.5118462055-.7929605466-20.6473171766.2766973882-2.6867218001,1.1910916598-4.4997648269,3.9308985461-5.2038152334l82.8926987018-.1939701755c2.2018128766.0637917255,4.2919649867,1.1076281099,5.0081120477,3.2961731113.896807724,2.7406438822.6874181242,15.2830043916.4057641744,18.7700908194-.0971119631,1.2023186919.0066536581,2.392270084-.6837218721,3.4684205573-16.1658879756,23.4643777609-34.2704804047,45.6317508993-50.6943500795,68.8873563521-1.8352276886,2.5986160319-4.4540704162,5.5771621129-5.1290666492,8.5730038216Z"/>
      <path class="cls-3" d="M241.5539121824,146.2200274965c.2043830033-.7641251456,1.9583314108-1.8994892771,2.9164652182-2.066105901,2.2026597409-.3830359881,16.284130424-.3801648261,18.10168055.147816044,3.754392724,1.0906150586,3.0276313106,5.6721998315,3.0607142474,8.5745608129.0081767774.7173474298-.3783168839,2.8658877249,1.2407256579,2.057842323,1.8442175893-.920427663,5.3315676074-5.8189976781,7.4763222122-7.4744890247,11.5285344407-8.8986352857,31.2036072829-6.6719774875,41.1446560559,3.7105208742,12.3756568877,12.925219491,8.7165202751,33.4382729528,9.0636328664,49.896791807.2125264074,10.0770469597,1.6932297276,20.5127328625.9112295162,30.7293464218-.1729646411,2.2597345517-.2172280232,4.0551386855-2.9602693841,4.5135872582-3.0642610441.512134495-16.8427787379.5121356125-19.9070377395.0000001854-4.5902363377-.7671749177-2.6699678947-9.1022060609-2.9115404117-12.8666013959-.1046686449-1.6310388427-.8074536389-3.1373902605-.8756656671-4.9373339486-.5317835023-14.0324277669.624757926-28.1758698179-.139151661-42.2127026819-6.8478776471-16.4948962351-26.9366809797-10.4754675408-32.0316511957,4.1515911723-1.6848442464,16.6215402411,1.6299605799,35.8872403384-.1361939228,52.1808026184-.2154221337,1.9873651746-.7547993221,3.3158179739-2.9591840894,3.6842440636-2.3063633761.3854701107-18.9917951731.268942985-20.3317602797-.4057057862-.3743583159-.1884828019-1.6629719732-1.5413016669-1.6629719732-1.6587420908v-88.0254227519Z"/>
      <path class="cls-3" d="M199.7713882095,144.2980723195c1.8054881719-.5218770973,18.4172029447-.5632834145,20.6143062624-.1618255687,1.7860176112.3263436803,2.2386799855,1.4741108942,2.7220308594,3.0909687498l.217820334,85.3984385612c.0663949159,1.4916011379-.7527936126,3.1028414275-2.2712482494,3.5417513636-1.805488172.5218770973-18.4172029447.5632834145-20.6143062624.1618255687-1.7860176112-.3263436803-2.2386799855-1.4741108942-2.7220308594-3.0909687498l-.217820334-85.3984385612c-.0663949159-1.4916011379.7527936126-3.1028414275,2.2712482494-3.5417513636Z"/>
      <path class="cls-3" d="M208.1084661349,102.815821032c13.3071936084-2.1539911334,24.4090134644,13.0906879271,16.7061301094,25.004026132-9.8094878457,15.171428793-33.9282081225,5.3338586755-30.2240642223-11.9599488347,1.3735089688-6.4126017673,7.0765109698-12.0014255748,13.5179341129-13.0440772972Z"/>
    </g>
    <g>
      <g>
        <g class="cls-8">
          <g>
            <polygon class="cls-7" points="328.287051273 185.7719204976 305.0285362164 153.5358307313 396.8747742322 83.9969822383 420.1332892887 116.2330720046 328.287051273 185.7719204976"/>
            <polygon class="cls-5" points="349.6656450717 213.1511438143 329.298140156 184.9219677392 421.1443781718 115.3831192461 441.5118830875 143.6122953213 349.6656450717 213.1511438143"/>
            <polygon class="cls-7" points="363.063344984 246.6746880019 342.6958400683 218.4455119267 434.5420780841 148.9066634337 454.9095829998 177.1358395088 363.063344984 246.6746880019"/>
            <polygon class="cls-5" points="381.8420883038 275.9234178299 361.4745833881 247.6942417548 453.3208214039 178.1553932617 473.6883263196 206.3845693369 381.8420883038 275.9234178299"/>
          </g>
        </g>
        <rect class="cls-1" x="355.5347298499" y="120.2761521645" width="67.6474028361" height="112.9450951822"/>
      </g>
      <path class="cls-7" d="M432.3890725841,234.3726863145c3.647644043,1.2287597656,6.0850219727,4.223449707,6.5520019531,8.0849609375.4018554688,3.3231811523-.7415771484,7.7916870117-5.1557006836,10.3670654297-.5288085938.3085327148-1.9031982422.6072998047-2.9067382812.8255004883-2.2041015625.4791259766-4.2860107422.931640625-5.409362793,2.5518798828-.6939086914,1.0009155273-1.1367797852,2.6569824219-1.994140625,6.0098266602-.5874023438,2.2972412109-1.3184204102,5.1563110352-1.9509887695,6.5149536133-6.0430908203,12.9802856445-18.0439453125,20.7297363281-32.1022338867,20.7297363281-15.7975463867,0-29.2617797852-9.7318725586-34.3018798828-24.7931518555-.2601928711-.7775268555-.6652832031-3.1723632812-.9333496094-4.757019043-.5961914062-3.5247802734-.7036743164-4.1599121094-1.4840087891-4.9747314453-.9717407227-1.0151977539-2.0731811523-1.0269165039-3.7403564453-1.0446166992-.549621582-.005859375-1.5727539062-.0167236328-1.8901367188-.0822143555-5.5795288086-1.291015625-8.0424194336-6.0849609375-8.0081787109-10.2632446289.0295410156-3.6026000977,2.0129394531-7.8659057617,7.4649047852-9.1664428711l85.860168457-.0025024414M432.8501321544,231.3726863145l-86.6555786133.0025024414c-14.107421875,3.0214233398-12.9587402344,22.307434082.2013549805,25.3524780273,1.1494140625.2659301758,3.9330444336.0627441406,4.1395263672.2784423828.3037719727.317199707,1.1065673828,6.7174682617,1.7396850586,8.609375,5.8903198242,17.6020507812,21.516784668,26.8411254883,37.1467895508,26.8411254883,13.8758544922,0,27.7547607422-7.2836303711,34.8219604492-22.4635620117,1.4404907227-3.0941162109,2.8199462891-10.8255004883,3.6908569336-12.0816650391.8344116211-1.2034912109,5.3240966797-1.3062133789,7.3624267578-2.4954223633,9.8873901367-5.7686157227,8.6928100586-20.7496337891-2.4470214844-24.0432739258h0Z"/>
      <path class="cls-7" d="M389.4219094981,63.3073786974c14.0583496094,0,26.0591430664,7.7493896484,32.1022338867,20.729675293.6325073242,1.3586425781,1.3635864258,4.2177124023,1.9509887695,6.5149536133.8573608398,3.3528442383,1.3002319336,5.0089111328,1.994140625,6.0098266602,1.1233520508,1.6202392578,3.2052612305,2.0728149414,5.4094238281,2.551940918,1.0035400391.2181396484,2.3778686523.5169067383,2.9066162109.825378418,4.4141845703,2.5754394531,5.5576171875,7.0440063477,5.1557617188,10.3671264648-.4669799805,3.8615112305-2.9043579102,6.8562011719-6.5520019531,8.0850219727l-85.860168457-.0025024414c-5.451965332-1.3005981445-7.4353637695-5.5639038086-7.4649047852-9.1665039062-.0342407227-4.1782836914,2.4287109375-8.9721679688,8.0026245117-10.2619628906.3231201172-.0667724609,1.3461914062-.0776367188,1.8958740234-.0834960938,1.6670532227-.0177001953,2.7684326172-.0294189453,3.7395629883-1.0440063477.7809448242-.8154296875.8884277344-1.4505615234,1.4846191406-4.9752807617.2680664062-1.5847167969.6731567383-3.9794921875.9333496094-4.757019043,5.0401000977-15.061340332,18.5043945312-24.7931518555,34.3018798828-24.7931518555M389.4219094981,60.3073786974c-15.6299438477,0-31.2564697266,9.2391357422-37.1467895508,26.8411254883-.6331176758,1.8918457031-1.4359130859,8.2921142578-1.7396850586,8.6093139648-.2064819336.2156982422-2.9901123047.012512207-4.1395263672.278503418-13.1600952148,3.0450439453-14.3087768555,22.3309936523-.2013549805,25.3524780273l86.6555786133.0025024414c11.139831543-3.2937011719,12.3344116211-18.2746582031,2.4470214844-24.0433349609-2.0383300781-1.1892089844-6.5280151367-1.2918701172-7.3624267578-2.4954223633-.8709106445-1.2561645508-2.2503662109-8.987487793-3.6908569336-12.0816650391-7.067199707-15.1799316406-20.9460449219-22.4635009766-34.8219604492-22.4635009766h0Z"/>
    </g>
  </g>
  <path class="cls-6" d="M262.754307003,175.9667648076c.5392392964.2768095055.5392392964.553619011,0,.8304285165v-.8304285165Z"/>
</svg>