<?xml version="1.0" encoding="UTF-8"?>
<svg id="Layer_1" data-name="Layer 1" xmlns="http://www.w3.org/2000/svg" xmlns:xlink="http://www.w3.org/1999/xlink" viewBox="0 0 525.91 352.76">
  <defs>
    <clipPath id="clippath">
      <rect x="355.53" y="120.28" width="67.65" height="112.95" fill="none" stroke="#d2ff4d" stroke-linecap="round" stroke-linejoin="round" stroke-width="2"/>
    </clipPath>
  </defs>
  <rect x="8.49" y="12.03" width="508.93" height="328.7" rx="136.73" ry="136.73" fill="#2e3c41" stroke="#d2ff4d" stroke-linecap="round" stroke-linejoin="round" stroke-width="3"/>
  <g>
    <g>
      <path d="M121.97,210.58h56.88c.18,0,2.28,2.09,2.49,2.5.78,1.55.76,19.02,0,20.75-.3.68-1.9,2.13-2.64,2.34l-88.74.2c-1.46.13-3.54-1.28-4.1-2.54-.86-1.93-.69-14.96-.46-17.88.1-1.21,0-2.4.67-3.49,16.57-24.45,37.03-47.64,53.2-72.19,1.04-1.58,2.61-3.28,2.64-5.25h-52.73c-.26,0-1.88-.97-2.14-1.38-1.16-1.85-1.12-17.51-.79-20.65.28-2.69,1.19-4.5,3.93-5.2l82.89-.19c2.2.06,4.29,1.11,5.01,3.3.9,2.74.69,15.28.41,18.77-.1,1.2,0,2.39-.68,3.47-16.17,23.46-34.27,45.63-50.69,68.89-1.84,2.6-4.45,5.58-5.13,8.57Z" fill="#d2ff4d" stroke="#d2ff4d" stroke-miterlimit="10" stroke-width="2"/>
      <path d="M241.55,146.22c.2-.76,1.96-1.9,2.92-2.07,2.2-.38,16.28-.38,18.1.15,3.75,1.09,3.03,5.67,3.06,8.57,0,.72-.38,2.87,1.24,2.06,1.84-.92,5.33-5.82,7.48-7.47,11.53-8.9,31.2-6.67,41.14,3.71,12.38,12.93,8.72,33.44,9.06,49.9.21,10.08,1.69,20.51.91,30.73-.17,2.26-.22,4.06-2.96,4.51-3.06.51-16.84.51-19.91,0-4.59-.77-2.67-9.1-2.91-12.87-.1-1.63-.81-3.14-.88-4.94-.53-14.03.62-28.18-.14-42.21-6.85-16.49-26.94-10.48-32.03,4.15-1.68,16.62,1.63,35.89-.14,52.18-.22,1.99-.75,3.32-2.96,3.68s-18.99.27-20.33-.41c-.37-.19-1.66-1.54-1.66-1.66v-88.03Z" fill="#d2ff4d" stroke="#d2ff4d" stroke-miterlimit="10" stroke-width="2"/>
      <path d="M199.77,144.3c1.81-.52,18.42-.56,20.61-.16,1.79.33,2.24,1.47,2.72,3.09l.22,85.4c.07,1.49-.75,3.1-2.27,3.54-1.81.52-18.42.56-20.61.16-1.79-.33-2.24-1.47-2.72-3.09l-.22-85.4c-.07-1.49.75-3.1,2.27-3.54Z" fill="#d2ff4d" stroke="#d2ff4d" stroke-miterlimit="10" stroke-width="2"/>
      <path d="M208.11,102.82c13.31-2.15,24.41,13.09,16.71,25-9.81,15.17-33.93,5.33-30.22-11.96,1.37-6.41,7.08-12,13.52-13.04Z" fill="#d2ff4d" stroke="#d2ff4d" stroke-miterlimit="10" stroke-width="2"/>
    </g>
    <g>
      <g>
        <g clip-path="url(#clippath)">
          <g>
            <polygon points="328.29 185.77 305.03 153.54 396.87 84 420.13 116.23 328.29 185.77" fill="#d2ff4d"/>
            <polygon points="349.67 213.15 329.3 184.92 421.14 115.38 441.51 143.61 349.67 213.15" fill="#74b2bb"/>
            <polygon points="363.06 246.67 342.7 218.45 434.54 148.91 454.91 177.14 363.06 246.67" fill="#d2ff4d"/>
            <polygon points="381.84 275.92 361.47 247.69 453.32 178.16 473.69 206.38 381.84 275.92" fill="#74b2bb"/>
          </g>
        </g>
        <rect x="355.53" y="120.28" width="67.65" height="112.95" fill="none" stroke="#d2ff4d" stroke-linecap="round" stroke-linejoin="round" stroke-width="2"/>
      </g>
      <path d="M432.39,234.37c3.65,1.23,6.09,4.22,6.55,8.08.4,3.32-.74,7.79-5.16,10.37-.53.31-1.9.61-2.91.83-2.2.48-4.29.93-5.41,2.55-.69,1-1.14,2.66-1.99,6.01-.59,2.3-1.32,5.16-1.95,6.51-6.04,12.98-18.04,20.73-32.1,20.73-15.8,0-29.26-9.73-34.3-24.79-.26-.78-.67-3.17-.93-4.76-.6-3.52-.7-4.16-1.48-4.97-.97-1.02-2.07-1.03-3.74-1.04-.55,0-1.57-.02-1.89-.08-5.58-1.29-8.04-6.08-8.01-10.26.03-3.6,2.01-7.87,7.46-9.17h85.86M432.85,231.37h-86.66c-14.11,3.02-12.96,22.31.2,25.35,1.15.27,3.93.06,4.14.28.3.32,1.11,6.72,1.74,8.61,5.89,17.6,21.52,26.84,37.15,26.84,13.88,0,27.75-7.28,34.82-22.46,1.44-3.09,2.82-10.83,3.69-12.08.83-1.2,5.32-1.31,7.36-2.5,9.89-5.77,8.69-20.75-2.45-24.04h0Z" fill="#d2ff4d"/>
      <path d="M389.42,63.31c14.06,0,26.06,7.75,32.1,20.73.63,1.36,1.36,4.22,1.95,6.51.86,3.35,1.3,5.01,1.99,6.01,1.12,1.62,3.21,2.07,5.41,2.55,1,.22,2.38.52,2.91.83,4.41,2.58,5.56,7.04,5.16,10.37-.47,3.86-2.9,6.86-6.55,8.09h-85.86c-5.45-1.3-7.44-5.57-7.46-9.17-.03-4.18,2.43-8.97,8-10.26.32-.07,1.35-.08,1.9-.08,1.67-.02,2.77-.03,3.74-1.04.78-.82.89-1.45,1.48-4.98.27-1.58.67-3.98.93-4.76,5.04-15.06,18.5-24.79,34.3-24.79M389.42,60.31c-15.63,0-31.26,9.24-37.15,26.84-.63,1.89-1.44,8.29-1.74,8.61-.21.22-2.99.01-4.14.28-13.16,3.05-14.31,22.33-.2,25.35h86.66c11.14-3.29,12.33-18.27,2.45-24.04-2.04-1.19-6.53-1.29-7.36-2.5-.87-1.26-2.25-8.99-3.69-12.08-7.07-15.18-20.95-22.46-34.82-22.46h0Z" fill="#d2ff4d"/>
    </g>
  </g>
  <path d="M262.75,175.97c.54.28.54.55,0,.83v-.83Z" fill="#38403b"/>
</svg>