<?xml version="1.0" encoding="UTF-8"?>
<svg id="Layer_1" data-name="Layer 1" xmlns="http://www.w3.org/2000/svg" xmlns:xlink="http://www.w3.org/1999/xlink" viewBox="0 0 823.7 294.48">
  <defs>
    <clipPath id="clippath">
      <rect x="697.36" y="82.73" width="77.78" height="129.87" fill="none" stroke="#d2ff4d" stroke-linecap="round" stroke-linejoin="round" stroke-width="2"/>
    </clipPath>
  </defs>
  <g>
    <g>
      <path d="M69.17,172.76h65.41c.2,0,2.63,2.4,2.86,2.87.89,1.78.88,21.87,0,23.86-.35.78-2.18,2.45-3.04,2.69l-102.04.23c-1.68.15-4.07-1.47-4.71-2.93-.99-2.22-.8-17.2-.53-20.56.11-1.39.01-2.76.77-4.01,19.06-28.12,42.57-54.77,61.17-83.01,1.2-1.82,3-3.77,3.03-6.04H31.45c-.3,0-2.16-1.12-2.46-1.59-1.33-2.12-1.28-20.14-.91-23.74.32-3.09,1.37-5.17,4.52-5.98l95.31-.22c2.53.07,4.94,1.27,5.76,3.79,1.03,3.15.79,17.57.47,21.58-.11,1.38,0,2.75-.79,3.99-18.59,26.98-39.41,52.47-58.29,79.21-2.11,2.99-5.12,6.41-5.9,9.86Z" fill="#2e3c41"/>
      <path d="M69.17,172.76h65.41c.2,0,2.63,2.4,2.86,2.87.89,1.78.88,21.87,0,23.86-.35.78-2.18,2.45-3.04,2.69l-102.04.23c-1.68.15-4.07-1.47-4.71-2.93-.99-2.22-.8-17.2-.53-20.56.11-1.39.01-2.76.77-4.01,19.06-28.12,42.57-54.77,61.17-83.01,1.2-1.82,3-3.77,3.03-6.04H31.45c-.3,0-2.16-1.12-2.46-1.59-1.33-2.12-1.28-20.14-.91-23.74.32-3.09,1.37-5.17,4.52-5.98l95.31-.22c2.53.07,4.94,1.27,5.76,3.79,1.03,3.15.79,17.57.47,21.58-.11,1.38,0,2.75-.79,3.99-18.59,26.98-39.41,52.47-58.29,79.21-2.11,2.99-5.12,6.41-5.9,9.86Z" fill="none" stroke="#d2ff4d" stroke-linecap="round" stroke-linejoin="round" stroke-width="3"/>
    </g>
    <g>
      <path d="M206.67,98.76c.24-.88,2.25-2.18,3.35-2.38,2.53-.44,18.72-.44,20.81.17,4.32,1.25,3.48,6.52,3.52,9.86,0,.82-.43,3.3,1.43,2.37,2.12-1.06,6.13-6.69,8.6-8.59,13.26-10.23,35.88-7.67,47.31,4.27,14.23,14.86,10.02,38.45,10.42,57.37.24,11.59,1.95,23.59,1.05,35.33-.2,2.6-.25,4.66-3.4,5.19-3.52.59-19.37.59-22.89,0-5.28-.88-3.07-10.47-3.35-14.79-.12-1.88-.93-3.61-1.01-5.68-.61-16.13.72-32.4-.16-48.54-7.87-18.97-30.97-12.04-36.83,4.77-1.94,19.11,1.87,41.26-.16,60-.25,2.29-.87,3.81-3.4,4.24-2.65.44-21.84.31-23.38-.47-.43-.22-1.91-1.77-1.91-1.91v-101.21Z" fill="#2e3c41"/>
      <path d="M206.67,98.76c.24-.88,2.25-2.18,3.35-2.38,2.53-.44,18.72-.44,20.81.17,4.32,1.25,3.48,6.52,3.52,9.86,0,.82-.43,3.3,1.43,2.37,2.12-1.06,6.13-6.69,8.6-8.59,13.26-10.23,35.88-7.67,47.31,4.27,14.23,14.86,10.02,38.45,10.42,57.37.24,11.59,1.95,23.59,1.05,35.33-.2,2.6-.25,4.66-3.4,5.19-3.52.59-19.37.59-22.89,0-5.28-.88-3.07-10.47-3.35-14.79-.12-1.88-.93-3.61-1.01-5.68-.61-16.13.72-32.4-.16-48.54-7.87-18.97-30.97-12.04-36.83,4.77-1.94,19.11,1.87,41.26-.16,60-.25,2.29-.87,3.81-3.4,4.24-2.65.44-21.84.31-23.38-.47-.43-.22-1.91-1.77-1.91-1.91v-101.21Z" fill="none" stroke="#d2ff4d" stroke-linecap="round" stroke-linejoin="round" stroke-width="3"/>
    </g>
    <g>
      <path d="M158.63,96.55c2.08-.6,21.18-.65,23.7-.19,2.05.38,2.57,1.69,3.13,3.55l.25,98.19c.08,1.72-.87,3.57-2.61,4.07-2.08.6-21.18.65-23.7.19-2.05-.38-2.57-1.69-3.13-3.55l-.25-98.19c-.08-1.72.87-3.57,2.61-4.07Z" fill="#2e3c41"/>
      <path d="M158.63,96.55c2.08-.6,21.18-.65,23.7-.19,2.05.38,2.57,1.69,3.13,3.55l.25,98.19c.08,1.72-.87,3.57-2.61,4.07-2.08.6-21.18.65-23.7.19-2.05-.38-2.57-1.69-3.13-3.55l-.25-98.19c-.08-1.72.87-3.57,2.61-4.07Z" fill="none" stroke="#d2ff4d" stroke-linecap="round" stroke-linejoin="round" stroke-width="3"/>
    </g>
    <g>
      <path d="M168.21,48.85c15.3-2.48,28.07,15.05,19.21,28.75-11.28,17.44-39.01,6.13-34.75-13.75,1.58-7.37,8.14-13.8,15.54-15Z" fill="#2e3c41"/>
      <path d="M168.21,48.85c15.3-2.48,28.07,15.05,19.21,28.75-11.28,17.44-39.01,6.13-34.75-13.75,1.58-7.37,8.14-13.8,15.54-15Z" fill="none" stroke="#d2ff4d" stroke-linecap="round" stroke-linejoin="round" stroke-width="3"/>
    </g>
    <g>
      <path d="M450.22,197.13l-47.06-136.36c-.8-2.23-2.58-5.03-5.05-5.45l-33.23.17c-3.76,1.1-7.77,15.2-9.27,19.37-14.3,39.72-27.19,79.97-41.78,119.58-.66,3.22-.71,7.25,3.15,7.9,6.38-1.13,22.15,1.78,27.19-.47,4.84-2.17,8.85-28.63,11.12-29.16,16.36,1.15,34.38-1.37,50.53,0,.82.07,1.67-.03,2.39.47,2.45,1.71,5.94,24.59,9.75,27.95,3.3,2.91,23.38.35,28.85,1.21,2.72-.45,3.68-2.66,3.42-5.21ZM364.22,145.07c5.79-17.95,10.06-37.12,16.28-54.86.36-1.03.42-2.29,1.85-2.43l17.2,57.29h-35.33Z" fill="#2e3c41"/>
      <path d="M450.22,197.13l-47.06-136.36c-.8-2.23-2.58-5.03-5.05-5.45l-33.23.17c-3.76,1.1-7.77,15.2-9.27,19.37-14.3,39.72-27.19,79.97-41.78,119.58-.66,3.22-.71,7.25,3.15,7.9,6.38-1.13,22.15,1.78,27.19-.47,4.84-2.17,8.85-28.63,11.12-29.16,16.36,1.15,34.38-1.37,50.53,0,.82.07,1.67-.03,2.39.47,2.45,1.71,5.94,24.59,9.75,27.95,3.3,2.91,23.38.35,28.85,1.21,2.72-.45,3.68-2.66,3.42-5.21ZM364.22,145.07c5.79-17.95,10.06-37.12,16.28-54.86.36-1.03.42-2.29,1.85-2.43l17.2,57.29h-35.33Z" fill="none" stroke="#d2ff4d" stroke-linecap="round" stroke-linejoin="round" stroke-width="3"/>
    </g>
    <g>
      <path d="M555.92,121.9c-10.8-27.97-45.04-39.13-66.61-15.98.41-2.85-.27-8.42-3.52-9.38-2.4-.71-19.56-.6-22.8-.22-3.9.45-4.02,2.71-4.29,6.21l.06,141.35c.42,2.51,1.92,3.15,4.24,3.4,4.25.46,18.08.62,22-.06,1.05-.18,3.35-1.72,3.35-2.38v-50.13l10.46,7.21c48.89,17.48,72.13-41.17,57.12-80.03ZM511.68,178.41c-7.88,1.04-21.92-2.85-23.28-11.91-.71-4.76-.72-28.76.4-32.93,1.38-5.14,10.34-12.23,15.53-13.11,35.1-6,32.65,54.61,7.35,57.95Z" fill="#2e3c41"/>
      <path d="M555.92,121.9c-10.8-27.97-45.04-39.13-66.61-15.98.41-2.85-.27-8.42-3.52-9.38-2.4-.71-19.56-.6-22.8-.22-3.9.45-4.02,2.71-4.29,6.21l.06,141.35c.42,2.51,1.92,3.15,4.24,3.4,4.25.46,18.08.62,22-.06,1.05-.18,3.35-1.72,3.35-2.38v-50.13l10.46,7.21c48.89,17.48,72.13-41.17,57.12-80.03ZM511.68,178.41c-7.88,1.04-21.92-2.85-23.28-11.91-.71-4.76-.72-28.76.4-32.93,1.38-5.14,10.34-12.23,15.53-13.11,35.1-6,32.65,54.61,7.35,57.95Z" fill="none" stroke="#d2ff4d" stroke-linecap="round" stroke-linejoin="round" stroke-width="3"/>
    </g>
    <g>
      <path d="M639.24,94.92c-14.59-3.71-28.29.16-37.74,11.95-1.51-3.58,1.57-8.53-3.29-10.07-3.24-1.03-16.63-.8-20.6-.44-4.69.41-4.97,1.78-5.27,6.18l.06,141.35c.14,1.16.85,2.37,1.89,2.89,1.73.86,24.46.83,25.81,0,.37-.23,1.89-2.69,1.89-2.88v-50.13c10.5,10.24,20.93,13.77,35.53,10.23,45.12-10.95,48.43-97.2,1.73-109.08ZM629.9,176.33c-9.86,4.66-27.7.55-28.89-11.68-.48-4.97-.75-27.29.44-31.09,1.64-5.25,10.05-12.16,15.55-13.1,14.34-2.44,24.69,6.1,26.04,20.31,1.18,12.33-.51,29.59-13.14,35.57Z" fill="#2e3c41"/>
      <path d="M639.24,94.92c-14.59-3.71-28.29.16-37.74,11.95-1.51-3.58,1.57-8.53-3.29-10.07-3.24-1.03-16.63-.8-20.6-.44-4.69.41-4.97,1.78-5.27,6.18l.06,141.35c.14,1.16.85,2.37,1.89,2.89,1.73.86,24.46.83,25.81,0,.37-.23,1.89-2.69,1.89-2.88v-50.13c10.5,10.24,20.93,13.77,35.53,10.23,45.12-10.95,48.43-97.2,1.73-109.08ZM629.9,176.33c-9.86,4.66-27.7.55-28.89-11.68-.48-4.97-.75-27.29.44-31.09,1.64-5.25,10.05-12.16,15.55-13.1,14.34-2.44,24.69,6.1,26.04,20.31,1.18,12.33-.51,29.59-13.14,35.57Z" fill="none" stroke="#d2ff4d" stroke-linecap="round" stroke-linejoin="round" stroke-width="3"/>
    </g>
  </g>
  <g>
    <g>
      <g clip-path="url(#clippath)">
        <g>
          <polygon points="666.03 158.04 639.28 120.97 744.89 41.01 771.63 78.08 666.03 158.04" fill="#d2ff4d"/>
          <polygon points="690.61 189.52 667.19 157.06 772.8 77.1 796.21 109.56 690.61 189.52" fill="#74b2bb"/>
          <polygon points="706.01 228.06 682.59 195.6 788.2 115.65 811.62 148.11 706.01 228.06" fill="#d2ff4d"/>
          <polygon points="727.6 261.69 704.19 229.24 809.79 149.28 833.21 181.74 727.6 261.69" fill="#74b2bb"/>
        </g>
      </g>
      <rect x="697.36" y="82.73" width="77.78" height="129.87" fill="none" stroke="#d2ff4d" stroke-linecap="round" stroke-linejoin="round" stroke-width="2"/>
    </g>
    <path d="M691.61,239.94c-.24-.25-3.44-.01-4.76-.32-15.13-3.5-16.45-25.68-.23-29.15h99.64c12.81,3.78,14.18,21.01,2.81,27.64-2.34,1.37-7.51,1.49-8.47,2.87s-2.59,10.33-4.24,13.89c-17.28,37.12-69.97,33.17-82.75-5.03-.73-2.18-1.65-9.53-2-9.9Z" fill="#2e3c41" stroke="#d2ff4d" stroke-linecap="round" stroke-linejoin="round" stroke-width="3"/>
    <path d="M691.61,54.53c-.24.25-3.44.01-4.76.32-15.13,3.5-16.45,25.68-.23,29.15h99.64c12.81-3.78,14.18-21.01,2.81-27.64-2.34-1.37-7.51-1.49-8.47-2.87s-2.59-10.33-4.24-13.89c-17.28-37.12-69.97-33.17-82.75,5.03-.73,2.18-1.65,9.53-2,9.9Z" fill="#2e3c41" stroke="#d2ff4d" stroke-linecap="round" stroke-linejoin="round" stroke-width="3"/>
  </g>
</svg>