<?xml version="1.0" encoding="UTF-8"?>
<svg id="Layer_1" data-name="Layer 1" xmlns="http://www.w3.org/2000/svg" xmlns:xlink="http://www.w3.org/1999/xlink" viewBox="0 0 349.83 357.52">
  <defs>
    <clipPath id="clippath">
      <rect x="141.41" y="122.66" width="67.65" height="112.95" fill="none" stroke="#d2ff4d" stroke-linecap="round" stroke-linejoin="round" stroke-width="2"/>
    </clipPath>
  </defs>
  <rect x="10.56" y="14.41" width="328.7" height="328.7" rx="164.35" ry="164.35" fill="#2e3c41" stroke="#d2ff4d" stroke-linecap="round" stroke-linejoin="round" stroke-width="3"/>
  <g>
    <g>
      <g clip-path="url(#clippath)">
        <g>
          <polygon points="114.16 188.15 90.9 155.91 182.75 86.38 206.01 118.61 114.16 188.15" fill="#d2ff4d"/>
          <polygon points="135.54 215.53 115.17 187.3 207.02 117.76 227.38 145.99 135.54 215.53" fill="#74b2bb"/>
          <polygon points="148.94 249.05 128.57 220.82 220.41 151.29 240.78 179.51 148.94 249.05" fill="#d2ff4d"/>
          <polygon points="167.71 278.3 147.35 250.07 239.19 180.53 259.56 208.76 167.71 278.3" fill="#74b2bb"/>
        </g>
      </g>
      <rect x="141.41" y="122.66" width="67.65" height="112.95" fill="none" stroke="#d2ff4d" stroke-linecap="round" stroke-linejoin="round" stroke-width="2"/>
    </g>
    <path d="M218.26,236.75c3.65,1.23,6.09,4.22,6.55,8.09.4,3.32-.74,7.79-5.16,10.37-.53.31-1.9.61-2.91.83-2.2.48-4.29.93-5.41,2.55-.69,1-1.14,2.66-1.99,6.01-.59,2.3-1.32,5.16-1.95,6.51-6.04,12.98-18.04,20.73-32.1,20.73-15.8,0-29.26-9.73-34.3-24.79-.26-.78-.67-3.17-.93-4.76-.6-3.52-.7-4.16-1.48-4.98-.97-1.01-2.07-1.03-3.74-1.04-.55,0-1.57-.02-1.89-.08-5.58-1.29-8.04-6.08-8.01-10.26.03-3.6,2.01-7.87,7.46-9.17h85.86M218.72,233.75h-86.66c-14.11,3.02-12.96,22.31.2,25.35,1.15.27,3.93.06,4.14.28.3.32,1.11,6.72,1.74,8.61,5.89,17.6,21.52,26.84,37.15,26.84,13.88,0,27.75-7.28,34.82-22.46,1.44-3.09,2.82-10.83,3.69-12.08.83-1.2,5.32-1.31,7.36-2.5,9.89-5.77,8.69-20.75-2.45-24.04h0Z" fill="#d2ff4d"/>
    <path d="M175.29,65.69c14.06,0,26.06,7.75,32.1,20.73.63,1.36,1.36,4.22,1.95,6.52.86,3.35,1.3,5.01,1.99,6.01,1.12,1.62,3.21,2.07,5.41,2.55,1,.22,2.38.52,2.91.83,4.41,2.58,5.56,7.04,5.16,10.37-.47,3.86-2.9,6.86-6.55,8.09h-85.86c-5.45-1.3-7.44-5.57-7.46-9.17-.03-4.18,2.43-8.97,8-10.26.32-.07,1.35-.08,1.9-.08,1.67-.02,2.77-.03,3.74-1.04.78-.82.89-1.45,1.48-4.98.27-1.58.67-3.98.93-4.76,5.04-15.06,18.5-24.79,34.3-24.79M175.29,62.69c-15.63,0-31.26,9.24-37.15,26.84-.63,1.89-1.44,8.29-1.74,8.61-.21.22-2.99.01-4.14.28-13.16,3.05-14.31,22.33-.2,25.35h86.66c11.14-3.29,12.33-18.27,2.45-24.04-2.04-1.19-6.53-1.29-7.36-2.5-.87-1.26-2.25-8.99-3.69-12.08-7.07-15.18-20.95-22.46-34.82-22.46h0Z" fill="#d2ff4d"/>
  </g>
</svg>