<?xml version="1.0" encoding="UTF-8"?>
<svg id="Layer_1" data-name="Layer 1" xmlns="http://www.w3.org/2000/svg" xmlns:xlink="http://www.w3.org/1999/xlink" viewBox="0 0 349.8260869565 357.5217391304">
  <defs>
    <style>
      .cls-1 {
        fill: none;
        stroke-width: 2px;
      }

      .cls-1, .cls-2 {
        stroke: #d2ff4d;
        stroke-linecap: round;
        stroke-linejoin: round;
      }

      .cls-3 {
        fill: #74b2bb;
      }

      .cls-2 {
        fill: #2e3c41;
        stroke-width: 3px;
      }

      .cls-4 {
        fill: #d2ff4d;
      }

      .cls-5 {
        clip-path: url(#clippath);
      }
    </style>
    <clipPath id="clippath">
      <rect class="cls-1" x="141.407001472" y="122.6550426638" width="67.6474028361" height="112.9450951822"/>
    </clipPath>
  </defs>
  <rect class="cls-2" x="10.5627237683" y="14.4105498879" width="328.7006394227" height="328.7006393756" rx="164.3501553189" ry="164.3501553189"/>
  <g>
    <g>
      <g class="cls-5">
        <g>
          <polygon class="cls-4" points="114.159322895 188.150810997 90.9008078384 155.9147212307 182.7470458542 86.3758727376 206.0055609108 118.6119625039 114.159322895 188.150810997"/>
          <polygon class="cls-3" points="135.5379166937 215.5300343136 115.170411778 187.3008582385 207.0166497938 117.7620097454 227.3841547095 145.9911858206 135.5379166937 215.5300343136"/>
          <polygon class="cls-4" points="148.9356166061 249.0535785012 128.5681116904 220.824402426 220.4143497061 151.285553933 240.7818546218 179.5147300081 148.9356166061 249.0535785012"/>
          <polygon class="cls-3" points="167.7143599258 278.3023083292 147.3468550101 250.0731322541 239.1930930259 180.534283761 259.5605979416 208.7634598362 167.7143599258 278.3023083292"/>
        </g>
      </g>
      <rect class="cls-1" x="141.407001472" y="122.6550426638" width="67.6474028361" height="112.9450951822"/>
    </g>
    <path class="cls-4" d="M218.2613127335,236.7515610632c3.6476135254,1.2288208008,6.0850830078,4.2235107422,6.5520324707,8.0850219727.4018554688,3.3231201172-.7415466309,7.7916870117-5.1557006836,10.3670654297-.5288085938.3085327148-1.9031982422.6072998047-2.9067077637.8254394531-2.2041625977.4791259766-4.2860717773.9317016602-5.4093322754,2.5518798828-.6939697266,1.0009155273-1.1368713379,2.6569824219-1.9942016602,6.0098876953-.5874023438,2.2972412109-1.3184814453,5.1563110352-1.9509887695,6.5149536133-6.0431213379,12.9802856445-18.0439453125,20.729675293-32.1022644043,20.729675293-15.7974853516,0-29.2617492676-9.7318725586-34.3018188477-24.7930908203-.2601928711-.7775878906-.6652832031-3.1724243164-.9333496094-4.7570800781-.5962524414-3.5247192383-.7036743164-4.1597900391-1.4844665527-4.9751586914-.9716796875-1.0147705078-2.0728759766-1.0264282227-3.7397460938-1.0441894531-.5496826172-.0057983398-1.5729064941-.0167236328-1.8903198242-.0822143555-5.5795288086-1.291015625-8.0424194336-6.0848999023-8.0081787109-10.2631835938.0295410156-3.6026611328,2.0129394531-7.8659057617,7.4649047852-9.1665039062l85.8601379395-.0025024414M218.7223723038,233.7515610632l-86.6555175781.0025024414c-14.1074829102,3.021484375-12.958770752,22.307434082.2012939453,25.3524780273,1.1494445801.2659301758,3.9330444336.0628051758,4.1395568848.2784423828.3037414551.317199707,1.1065979004,6.7174682617,1.7396850586,8.609375,5.8902893066,17.6020507812,21.5168151855,26.8411254883,37.1467590332,26.8411254883,13.8758850098,0,27.7547912598-7.2835693359,34.8219604492-22.4635009766,1.4405212402-3.0941772461,2.8199768066-10.8255615234,3.6908874512-12.0816650391.8344116211-1.2035522461,5.3240966797-1.3062133789,7.3624267578-2.4954223633,9.8874206543-5.7686767578,8.6928100586-20.7496337891-2.447052002-24.0433349609h0Z"/>
    <path class="cls-4" d="M175.2941801652,65.686253446c14.0582885742,0,26.0591125488,7.7493896484,32.1022338867,20.729675293.6325073242,1.3586425781,1.3635864258,4.2177124023,1.9509887695,6.5150146484.8573303223,3.3528442383,1.3002319336,5.0089111328,1.9941711426,6.009765625,1.1233215332,1.6202392578,3.2052307129,2.0728149414,5.4093933105,2.551940918,1.0035400391.2181396484,2.3778686523.5169067383,2.9066772461.825378418,4.4141235352,2.5754394531,5.5575561523,7.0439453125,5.1557006836,10.3670654297-.4669494629,3.8615722656-2.9043884277,6.856262207-6.5520629883,8.0850830078l-85.8601074219-.0025024414c-5.451965332-1.3005981445-7.4353637695-5.5639038086-7.4649047852-9.1665039062-.0342407227-4.1782836914,2.4286499023-8.9721679688,8.0024719238-10.2619018555.3231201172-.0667724609,1.3463439941-.0776977539,1.8960266113-.0834960938,1.6668701172-.0177612305,2.7680664062-.0294189453,3.739654541-1.0440673828.7808837891-.8154296875.8883056641-1.4505615234,1.4845581055-4.9752807617.2680664062-1.5846557617.6731567383-3.9794921875.9333496094-4.757019043,5.0400695801-15.061340332,18.5043334961-24.7931518555,34.3018493652-24.7931518555M175.2941801652,62.686253446c-15.6299438477,0-31.2565002441,9.2391357422-37.1467895508,26.8411254883-.6330871582,1.8919067383-1.4359436035,8.292175293-1.7396850586,8.609375-.2065124512.215637207-2.9901123047.012512207-4.1395568848.2784423828-13.1600646973,3.0450439453-14.3087768555,22.3309936523-.2012939453,25.3524780273l86.6555175781.0025024414c11.1398620605-3.2937011719,12.3344726562-18.2746582031,2.447052002-24.0433349609-2.0383300781-1.1892089844-6.5280151367-1.2918701172-7.3624267578-2.4954223633-.8709106445-1.2561035156-2.2503662109-8.987487793-3.6908874512-12.0816650391-7.0671691895-15.1799316406-20.9460449219-22.4635009766-34.8219299316-22.4635009766h0Z"/>
  </g>
</svg>