<?xml version="1.0" encoding="UTF-8"?>
<svg id="Layer_1" data-name="Layer 1" xmlns="http://www.w3.org/2000/svg" xmlns:xlink="http://www.w3.org/1999/xlink" viewBox="0 0 823.6956521739 294.4771412883">
  <defs>
    <style>
      .cls-1 {
        stroke-width: 2px;
      }

      .cls-1, .cls-2, .cls-3 {
        stroke: #d2ff4d;
        stroke-linecap: round;
        stroke-linejoin: round;
      }

      .cls-1, .cls-3 {
        fill: none;
      }

      .cls-4 {
        fill: #74b2bb;
      }

      .cls-5 {
        filter: url(#drop-shadow-13);
      }

      .cls-2, .cls-3 {
        stroke-width: 3px;
      }

      .cls-2, .cls-6 {
        fill: #2e3c41;
      }

      .cls-7 {
        fill: #d2ff4d;
      }

      .cls-8 {
        clip-path: url(#clippath);
      }
    </style>
    <filter id="drop-shadow-13" x="20.6086956522" y="7.5652173913" width="812.6029851358" height="289" filterUnits="userSpaceOnUse">
      <feOffset dx="5" dy="5"/>
      <feGaussianBlur result="blur" stdDeviation="3"/>
      <feFlood flood-color="#000" flood-opacity=".45"/>
      <feComposite in2="blur" operator="in"/>
      <feComposite in="SourceGraphic"/>
    </filter>
    <clipPath id="clippath">
      <rect class="cls-1" x="697.3553937627" y="82.7265324916" width="77.7828627382" height="129.867407575"/>
    </clipPath>
  </defs>
  <g class="cls-5">
    <g>
      <g>
        <path class="cls-6" d="M69.1701703802,172.7604451409h65.4072095243c.2025546069,0,2.6251517586,2.4029364923,2.8590077785,2.8700908588.8934038241,1.7846771596.8765580184,21.8715582034-.0047092902,23.8554519888-.3451094238.7769043904-2.1844444394,2.4461599063-3.0357198049,2.6933788322l-102.0388758461.2327926531c-1.6811212054.1518796539-4.0651669219-1.4693231912-4.7126267019-2.9261714827-.9868304254-2.2204656778-.7983371652-17.2003914959-.5308840843-20.5622282815.1102361289-1.3856481738.0106278108-2.7560342551.7657628331-4.0084854434,19.056122945-28.1166937676,42.572990319-54.7723169686,61.1728119728-83.0095164301,1.1966090482-1.8166243204,2.9993305474-3.7687039489,3.0344181966-6.0366421363H31.4536043042c-.3046265273,0-2.159205447-1.1151252899-2.4553973318-1.5878513004-1.3314273221-2.1249749183-1.2830620693-20.1356071717-.9117680615-23.7408587843.3181543425-3.0892673515,1.3695502739-5.1739545824,4.519856332-5.9834912953l95.3123273741-.2230322955c2.5317056025.0733494978,4.9350205542,1.2735815659,5.7584663366,3.790031397,1.0311744306,3.1512684592.7904124528,17.5728229463.4665589181,21.5823717774-.1116620325,1.3824594273.0076505609,2.7506985896-.7861623994,3.9880862948-18.587987014,26.9799932901-39.4051502576,52.4686546401-58.289771795,79.2085957315-2.1101957712,2.987960892-5.1214138797,6.4127759073-5.897543297,9.8574779157Z"/>
        <path class="cls-3" d="M69.1701703802,172.7604451409h65.4072095243c.2025546069,0,2.6251517586,2.4029364923,2.8590077785,2.8700908588.8934038241,1.7846771596.8765580184,21.8715582034-.0047092902,23.8554519888-.3451094238.7769043904-2.1844444394,2.4461599063-3.0357198049,2.6933788322l-102.0388758461.2327926531c-1.6811212054.1518796539-4.0651669219-1.4693231912-4.7126267019-2.9261714827-.9868304254-2.2204656778-.7983371652-17.2003914959-.5308840843-20.5622282815.1102361289-1.3856481738.0106278108-2.7560342551.7657628331-4.0084854434,19.056122945-28.1166937676,42.572990319-54.7723169686,61.1728119728-83.0095164301,1.1966090482-1.8166243204,2.9993305474-3.7687039489,3.0344181966-6.0366421363H31.4536043042c-.3046265273,0-2.159205447-1.1151252899-2.4553973318-1.5878513004-1.3314273221-2.1249749183-1.2830620693-20.1356071717-.9117680615-23.7408587843.3181543425-3.0892673515,1.3695502739-5.1739545824,4.519856332-5.9834912953l95.3123273741-.2230322955c2.5317056025.0733494978,4.9350205542,1.2735815659,5.7584663366,3.790031397,1.0311744306,3.1512684592.7904124528,17.5728229463.4665589181,21.5823717774-.1116620325,1.3824594273.0076505609,2.7506985896-.7861623994,3.9880862948-18.587987014,26.9799932901-39.4051502576,52.4686546401-58.289771795,79.2085957315-2.1101957712,2.987960892-5.1214138797,6.4127759073-5.897543297,9.8574779157Z"/>
      </g>
      <g>
        <path class="cls-6" d="M206.6685378473,98.7595876499c.2350052541-.8786123166,2.2517438503-2.1840855305,3.3534327148-2.3756659526,2.5326793506-.4404254182,18.7239454654-.4371240764,20.8138150841.1699629931,4.3169050351,1.254019487,3.4812545756,6.5220529159,3.5192942553,9.8592681875.0094018858.8248259996-.4349992611,3.2952773082,1.4266208236,2.3661642611,2.1205326087-1.0583332925,6.1303845232-6.6908451573,8.5964829401-8.5943750902,13.2558291135-10.2318980177,35.8787743575-7.6716250343,47.3092683567,4.2664599637,14.2298740326,14.8617763784,10.0224971202,38.4482550142,10.421616819,57.3727171405.2443687663,11.5868684918,1.9469225716,23.5861100018,1.0477570078,35.3334560464-.1988795485,2.5983055534-.2497748148,4.6627110951-3.4037999616,5.1898479978-3.5233724607.5888664673-19.3662948136.5888677522-22.8896649257.0000002132-5.2779812384-.8821190292-3.0700032456-10.4659693494-3.3477700356-14.7943756645-.1203509152-1.8754137646-.9284326217-3.6074584649-1.0068647063-5.6770837122-.6114594416-16.1348752076.7183640165-32.3973977225-.1600004449-48.537338033-7.8738799236-18.9662898492-30.9725439769-12.0449835423-36.8308822479,4.7736148434-1.9372807123,19.111908645,1.8741739482,41.2641457361-.1565995554,59.9989362115-.2476983528,2.2851276784-.8678892256,3.8126196057-3.4025520595,4.236246157-2.6519206708.4432242399-21.8372936014.3092381142-23.3780226994-.4664917817-.4304475897-.2167227609-1.9121313651-1.7722314674-1.9121313651-1.9072677288v-101.2140760522Z"/>
        <path class="cls-3" d="M206.6685378473,98.7595876499c.2350052541-.8786123166,2.2517438503-2.1840855305,3.3534327148-2.3756659526,2.5326793506-.4404254182,18.7239454654-.4371240764,20.8138150841.1699629931,4.3169050351,1.254019487,3.4812545756,6.5220529159,3.5192942553,9.8592681875.0094018858.8248259996-.4349992611,3.2952773082,1.4266208236,2.3661642611,2.1205326087-1.0583332925,6.1303845232-6.6908451573,8.5964829401-8.5943750902,13.2558291135-10.2318980177,35.8787743575-7.6716250343,47.3092683567,4.2664599637,14.2298740326,14.8617763784,10.0224971202,38.4482550142,10.421616819,57.3727171405.2443687663,11.5868684918,1.9469225716,23.5861100018,1.0477570078,35.3334560464-.1988795485,2.5983055534-.2497748148,4.6627110951-3.4037999616,5.1898479978-3.5233724607.5888664673-19.3662948136.5888677522-22.8896649257.0000002132-5.2779812384-.8821190292-3.0700032456-10.4659693494-3.3477700356-14.7943756645-.1203509152-1.8754137646-.9284326217-3.6074584649-1.0068647063-5.6770837122-.6114594416-16.1348752076.7183640165-32.3973977225-.1600004449-48.537338033-7.8738799236-18.9662898492-30.9725439769-12.0449835423-36.8308822479,4.7736148434-1.9372807123,19.111908645,1.8741739482,41.2641457361-.1565995554,59.9989362115-.2476983528,2.2851276784-.8678892256,3.8126196057-3.4025520595,4.236246157-2.6519206708.4432242399-21.8372936014.3092381142-23.3780226994-.4664917817-.4304475897-.2167227609-1.9121313651-1.7722314674-1.9121313651-1.9072677288v-101.2140760522Z"/>
      </g>
      <g>
        <path class="cls-6" d="M158.6258312424,96.5496702037c2.0760004489-.600068782,21.1766114974-.6476789156,23.7029019183-.1860715337,2.0536126574.3752390281,2.5740964283,1.6949736507,3.1298666886,3.5540817225l.2504558701,98.1934966632c.0763427184,1.7150844187-.8655830052,3.5677332571-2.6115443228,4.0724040927-2.0760004489.600068782-21.1766114974.6476789156-23.7029019183.1860715337-2.0536126574-.3752390281-2.5740964283-1.6949736507-3.1298666886-3.5540817225l-.2504558701-98.1934966632c-.0763427184-1.7150844187.8655830052-3.5677332571,2.6115443228-4.0724040927Z"/>
        <path class="cls-3" d="M158.6258312424,96.5496702037c2.0760004489-.600068782,21.1766114974-.6476789156,23.7029019183-.1860715337,2.0536126574.3752390281,2.5740964283,1.6949736507,3.1298666886,3.5540817225l.2504558701,98.1934966632c.0763427184,1.7150844187-.8655830052,3.5677332571-2.6115443228,4.0724040927-2.0760004489.600068782-21.1766114974.6476789156-23.7029019183.1860715337-2.0536126574-.3752390281-2.5740964283-1.6949736507-3.1298666886-3.5540817225l-.2504558701-98.1934966632c-.0763427184-1.7150844187.8655830052-3.5677332571,2.6115443228-4.0724040927Z"/>
      </g>
      <g>
        <path class="cls-6" d="M168.2120350096,48.8522254727c15.3009808281-2.4767188339,28.0661616599,15.0520365823,19.209172425,28.750323752-11.2792215908,17.444530224-39.0115960806,6.133018857-34.7524685388-13.7518813667,1.5792987626-7.3733876269,8.1367688685-13.7995724744,15.5432961138-14.9984423853Z"/>
        <path class="cls-3" d="M168.2120350096,48.8522254727c15.3009808281-2.4767188339,28.0661616599,15.0520365823,19.209172425,28.750323752-11.2792215908,17.444530224-39.0115960806,6.133018857-34.7524685388-13.7518813667,1.5792987626-7.3733876269,8.1367688685-13.7995724744,15.5432961138-14.9984423853Z"/>
      </g>
      <g>
        <path class="cls-6" d="M450.2153444429,197.1349778551l-47.0584050461-136.3587136993c-.7952224834-2.2335582026-2.578980237-5.030386856-5.0511926037-5.4521549112l-33.2298095113.1695347896c-3.7552917506,1.0956528169-7.7696937366,15.198161556-9.2729527132,19.3725405091-14.3028150546,39.7175894521-27.1883915346,79.9652883735-41.7826618944,119.5800729548-.6632196307,3.2247160461-.7084444491,7.2531050893,3.146738202,7.9011720746,6.3753006888-1.1293965925,22.1548575907,1.7828252831,27.1921796959-.4717717847,4.8425523332-2.1674693572,8.8457646734-28.6298160623,11.1151064308-29.1625481049,16.3575720422,1.153058031,34.3831589393-1.3669434479,50.5289436232-.0012238675.8205157452.0693524921,1.6669658257-.029489379,2.3896304496.4749188726,2.4518728543,1.711316453,5.9435668554,24.5888386676,9.7541074822,27.9530756097,3.3004792728,2.9139119784,23.3755197317.3507254602,28.8529679047,1.2075492748,2.7164030743-.4532972133,3.684423994-2.6565501252,3.4153479804-5.2124517178ZM364.2187787093,145.069789112c5.7876694466-17.9471428178,10.0563444773-37.1191438938,16.2802352715-54.8559563384.3621482236-1.0321282653.4173970997-2.2899726668,1.8535182016-2.4335148417l17.1956881677,57.2894711801h-35.3294416409Z"/>
        <path class="cls-3" d="M450.2153444429,197.1349778551l-47.0584050461-136.3587136993c-.7952224834-2.2335582026-2.578980237-5.030386856-5.0511926037-5.4521549112l-33.2298095113.1695347896c-3.7552917506,1.0956528169-7.7696937366,15.198161556-9.2729527132,19.3725405091-14.3028150546,39.7175894521-27.1883915346,79.9652883735-41.7826618944,119.5800729548-.6632196307,3.2247160461-.7084444491,7.2531050893,3.146738202,7.9011720746,6.3753006888-1.1293965925,22.1548575907,1.7828252831,27.1921796959-.4717717847,4.8425523332-2.1674693572,8.8457646734-28.6298160623,11.1151064308-29.1625481049,16.3575720422,1.153058031,34.3831589393-1.3669434479,50.5289436232-.0012238675.8205157452.0693524921,1.6669658257-.029489379,2.3896304496.4749188726,2.4518728543,1.711316453,5.9435668554,24.5888386676,9.7541074822,27.9530756097,3.3004792728,2.9139119784,23.3755197317.3507254602,28.8529679047,1.2075492748,2.7164030743-.4532972133,3.684423994-2.6565501252,3.4153479804-5.2124517178ZM364.2187787093,145.069789112c5.7876694466-17.9471428178,10.0563444773-37.1191438938,16.2802352715-54.8559563384.3621482236-1.0321282653.4173970997-2.2899726668,1.8535182016-2.4335148417l17.1956881677,57.2894711801h-35.3294416409Z"/>
      </g>
      <g>
        <path class="cls-6" d="M555.9204314564,121.8991214894c-10.8023791427-27.9682865344-45.0414131131-39.1318814303-66.6093970938-15.978231394.4145414089-2.8516112943-.2746125571-8.4191011483-3.5189687627-9.3784384365-2.4038506245-.7107756253-19.5592677232-.5965479912-22.7974463119-.2211120632-3.8953371612.45166539-4.0247757201,2.7081856782-4.2900635723,6.2132839425l.0576966111,141.348771207c.4175719379,2.5074131274,1.917450709,3.1522747455,4.2362716814,3.4025265112,4.2490931505.4585423598,18.0836914641.621841253,21.9972700791-.058687361,1.0529922924-.1830556116,3.3534552521-1.7176689082,3.3534552521-2.3756433924v-50.129613139l10.4559663585,7.208754462c48.8893108385,17.4846957379,72.1253096742-41.1691545963,57.1152157587-80.0316103365ZM511.6754064148,178.4146421691c-7.8822895474,1.0419192054-21.923022117-2.8491635593-23.2804660219-11.9064824734-.7139227132-4.7638751363-.7195758155-28.7636255766.3983980136-32.9298454129,1.3793569612-5.1401852554,10.335794225-12.2252708196,15.5314614741-13.1140900276,35.1014526079-6.004643672,32.6452670776,54.6068701608,7.3506065341,57.950417914Z"/>
        <path class="cls-3" d="M555.9204314564,121.8991214894c-10.8023791427-27.9682865344-45.0414131131-39.1318814303-66.6093970938-15.978231394.4145414089-2.8516112943-.2746125571-8.4191011483-3.5189687627-9.3784384365-2.4038506245-.7107756253-19.5592677232-.5965479912-22.7974463119-.2211120632-3.8953371612.45166539-4.0247757201,2.7081856782-4.2900635723,6.2132839425l.0576966111,141.348771207c.4175719379,2.5074131274,1.917450709,3.1522747455,4.2362716814,3.4025265112,4.2490931505.4585423598,18.0836914641.621841253,21.9972700791-.058687361,1.0529922924-.1830556116,3.3534552521-1.7176689082,3.3534552521-2.3756433924v-50.129613139l10.4559663585,7.208754462c48.8893108385,17.4846957379,72.1253096742-41.1691545963,57.1152157587-80.0316103365ZM511.6754064148,178.4146421691c-7.8822895474,1.0419192054-21.923022117-2.8491635593-23.2804660219-11.9064824734-.7139227132-4.7638751363-.7195758155-28.7636255766.3983980136-32.9298454129,1.3793569612-5.1401852554,10.335794225-12.2252708196,15.5314614741-13.1140900276,35.1014526079-6.004643672,32.6452670776,54.6068701608,7.3506065341,57.950417914Z"/>
      </g>
      <g>
        <path class="cls-6" d="M639.2366107882,94.9190205489c-14.5901908014-3.7105331675-28.2864338071.1577040703-37.741159985,11.9532808357-1.5113015345-3.5786468736,1.569056425-8.5303565327-3.291737362-10.0691659464-3.2420833088-1.0263586042-16.6293289084-.7958052774-20.5969908114-.4446718613-4.6850231011.4145996883-4.9717577745,1.7820093714-5.2741113284,6.1795401669l.0567641406,141.3453910015c.1405116458,1.1590025303.8483150215,2.37098104,1.8887772417,2.8854133493,1.7329963917.8569403734,24.4614398879.829257656,25.8057126473.0097326607.3734544282-.2276976359,1.8925071236-2.6914012095,1.8925071236-2.8818000262v-50.129613139c10.5022402062,10.2426637356,20.9323887881,13.7729387029,35.5333612795,10.2298422664,45.1226546039-10.9496511995,48.4310015964-97.2003151397,1.7268770542-109.0779493075ZM629.8996672881,176.3349998755c-9.8576117057,4.6627603683-27.6982780503.5526053197-28.8885766212-11.6804166608-.4834859452-4.9691352012-.7497645473-27.2917791993.4377948915-31.0930534007,1.6407983728-5.2520234338,10.0450965521-12.1636112089,15.5470803547-13.0992287793,14.3398224769-2.4385851499,24.6902448326,6.1045345725,26.0431429439,20.3064679767,1.1750293668,12.3346029837-.5111103832,29.5928832325-13.1394415689,35.566230864Z"/>
        <path class="cls-3" d="M639.2366107882,94.9190205489c-14.5901908014-3.7105331675-28.2864338071.1577040703-37.741159985,11.9532808357-1.5113015345-3.5786468736,1.569056425-8.5303565327-3.291737362-10.0691659464-3.2420833088-1.0263586042-16.6293289084-.7958052774-20.5969908114-.4446718613-4.6850231011.4145996883-4.9717577745,1.7820093714-5.2741113284,6.1795401669l.0567641406,141.3453910015c.1405116458,1.1590025303.8483150215,2.37098104,1.8887772417,2.8854133493,1.7329963917.8569403734,24.4614398879.829257656,25.8057126473.0097326607.3734544282-.2276976359,1.8925071236-2.6914012095,1.8925071236-2.8818000262v-50.129613139c10.5022402062,10.2426637356,20.9323887881,13.7729387029,35.5333612795,10.2298422664,45.1226546039-10.9496511995,48.4310015964-97.2003151397,1.7268770542-109.0779493075ZM629.8996672881,176.3349998755c-9.8576117057,4.6627603683-27.6982780503.5526053197-28.8885766212-11.6804166608-.4834859452-4.9691352012-.7497645473-27.2917791993.4377948915-31.0930534007,1.6407983728-5.2520234338,10.0450965521-12.1636112089,15.5470803547-13.0992287793,14.3398224769-2.4385851499,24.6902448326,6.1045345725,26.0431429439,20.3064679767,1.1750293668,12.3346029837-.5111103832,29.5928832325-13.1394415689,35.566230864Z"/>
      </g>
    </g>
    <g>
      <g>
        <g class="cls-8">
          <g>
            <polygon class="cls-7" points="666.0252561102 158.035386115 639.2819694755 120.9694347202 744.889325044 41.0117352294 771.6326116787 78.0776866242 666.0252561102 158.035386115"/>
            <polygon class="cls-4" points="690.6069570664 189.516777563 667.1878341916 157.0580868253 772.7951897602 77.1003873344 796.2143126349 109.5590780721 690.6069570664 189.516777563"/>
            <polygon class="cls-7" points="706.0120045568 228.0630798113 682.592881682 195.6043890736 788.2002372505 115.6466895828 811.6193601253 148.1053803205 706.0120045568 228.0630798113"/>
            <polygon class="cls-4" points="727.6043252195 261.694081773 704.1852023447 229.2353910353 809.7925579132 149.2776915444 833.211680788 181.7363822821 727.6043252195 261.694081773"/>
          </g>
        </g>
        <rect class="cls-1" x="697.3553937627" y="82.7265324916" width="77.7828627382" height="129.867407575"/>
      </g>
      <path class="cls-2" d="M691.6070786631,239.9424452025c-.2374667646-.2479949545-3.4381414238-.0143843792-4.7597902328-.3201934465-15.1317957157-3.5012631976-16.452616985-25.6768217194-.2314674094-29.1509631996l99.6389427531-.0029035836c12.8089274497,3.7871806615,14.1825067594,21.0127325849,2.8136775576,27.6456720903-2.343711478,1.3673964289-7.5060794393,1.4854686755-8.4655201083,2.8693058633-1.0013989507,1.444355188-2.5875226564,10.3340882925-4.2438735284,13.8918481391-17.2792735096,37.115025875-69.966065698,33.173808491-82.7516533281-5.033502834-.7279470733-2.1753321993-1.6510758897-9.5345395194-2.0003157038-9.899263029Z"/>
      <path class="cls-2" d="M691.6070786631,54.5346960858c-.2374667646.2479949545-3.4381414238.0143843792-4.7597902328.3201934465-15.1317957157,3.5012631976-16.452616985,25.6768217194-.2314674094,29.1509631996l99.6389427531.0029035836c12.8089274497-3.7871806615,14.1825067594-21.012732585,2.8136775576-27.6456720903-2.343711478-1.3673964289-7.5060794393-1.4854686755-8.4655201083-2.8693058634-1.0013989507-1.444355188-2.5875226564-10.3340882925-4.2438735284-13.8918481391-17.2792735096-37.115025875-69.966065698-33.173808491-82.7516533281,5.033502834-.7279470733,2.1753321993-1.6510758897,9.5345395194-2.0003157038,9.899263029Z"/>
    </g>
  </g>
</svg>