<?xml version="1.0" encoding="UTF-8"?>
<svg xmlns="http://www.w3.org/2000/svg" version="1.1" xmlns:xlink="http://www.w3.org/1999/xlink" viewBox="0 0 961 375.9">
  <!-- Generator: Adobe Illustrator 29.3.1, SVG Export Plug-In . SVG Version: 2.1.0 Build 151)  -->
  <defs>
    <style>
      .st0 {
        fill: #fbc98b;
      }

      .st1 {
        fill: #eb8050;
      }

      .st2 {
        fill: none;
      }

      .st3 {
        clip-path: url(#clippath-1);
      }

      .st4 {
        fill: #ea824f;
      }

      .st5 {
        isolation: isolate;
      }

      .st6 {
        fill: #38403b;
      }

      .st7 {
        fill: #f1a25b;
      }

      .st8 {
        mix-blend-mode: soft-light;
        opacity: .7;
      }

      .st9 {
        fill: #39423d;
      }

      .st10 {
        clip-path: url(#clippath-2);
      }

      .st11 {
        clip-path: url(#clippath);
      }
    </style>
    <clipPath id="clippath">
      <rect class="st2" x="784.1" y="124.1" width="80.3" height="131"/>
    </clipPath>
    <clipPath id="clippath-1">
      <rect class="st2" x="781.7" y="124.1" width="85.2" height="131"/>
    </clipPath>
    <clipPath id="clippath-2">
      <rect class="st2" x="776.7" y="119.1" width="95.2" height="141"/>
    </clipPath>
  </defs>
  <g class="st5">
    <g id="Layer_1">
      <path class="st6" d="M834,204.5c.6.3.6.7,0,1v-1Z"/>
      <g>
        <g>
          <path class="st9" d="M111.5,215.9h68.5c.2,0,2.7,2.5,3,3,.9,1.9.9,22.9,0,25-.4.8-2.3,2.6-3.2,2.8l-106.9.2c-1.8.2-4.3-1.5-4.9-3.1-1-2.3-.8-18-.6-21.5.1-1.5,0-2.9.8-4.2,20-29.4,44.6-57.4,64.1-86.9,1.3-1.9,3.1-3.9,3.2-6.3h-63.5c-.3,0-2.3-1.2-2.6-1.7-1.4-2.2-1.3-21.1-1-24.9.3-3.2,1.4-5.4,4.7-6.3l99.8-.2c2.7,0,5.2,1.3,6,4,1.1,3.3.8,18.4.5,22.6-.1,1.4,0,2.9-.8,4.2-19.5,28.3-41.3,54.9-61,83-2.2,3.1-5.4,6.7-6.2,10.3h0Z"/>
          <path class="st9" d="M255.5,138.4c.2-.9,2.4-2.3,3.5-2.5,2.7-.5,19.6-.5,21.8.2,4.5,1.3,3.6,6.8,3.7,10.3,0,.9-.5,3.5,1.5,2.5,2.2-1.1,6.4-7,9-9,13.9-10.7,37.6-8,49.5,4.5,14.9,15.6,10.5,40.3,10.9,60.1.3,12.1,2,24.7,1.1,37-.2,2.7-.3,4.9-3.6,5.4-3.7.6-20.3.6-24,0-5.5-.9-3.2-11-3.5-15.5-.1-2-1-3.8-1.1-5.9-.6-16.9.8-33.9-.2-50.8-8.2-19.9-32.4-12.6-38.6,5-2,20,2,43.2-.2,62.8-.3,2.4-.9,4-3.6,4.4-2.8.5-22.9.3-24.5-.5-.5-.2-2-1.9-2-2v-106h0Z"/>
          <path class="st9" d="M205.1,136.1c2.2-.6,22.2-.7,24.8-.2,2.2.4,2.7,1.8,3.3,3.7l.3,102.8c0,1.8-.9,3.7-2.7,4.3-2.2.6-22.2.7-24.8.2-2.2-.4-2.7-1.8-3.3-3.7l-.3-102.8c0-1.8.9-3.7,2.7-4.3Z"/>
          <path class="st9" d="M215.2,86.1c16-2.6,29.4,15.8,20.1,30.1-11.8,18.3-40.9,6.4-36.4-14.4,1.7-7.7,8.5-14.5,16.3-15.7Z"/>
          <path class="st9" d="M510.5,241.4l-49.3-142.8c-.8-2.3-2.7-5.3-5.3-5.7l-34.8.2c-3.9,1.1-8.1,15.9-9.7,20.3-15,41.6-28.5,83.7-43.8,125.2-.7,3.4-.7,7.6,3.3,8.3,6.7-1.2,23.2,1.9,28.5-.5,5.1-2.3,9.3-30,11.6-30.5,17.1,1.2,36-1.4,52.9,0,.9,0,1.7,0,2.5.5,2.6,1.8,6.2,25.8,10.2,29.3,3.5,3.1,24.5.4,30.2,1.3,2.8-.5,3.9-2.8,3.6-5.5ZM420.5,186.9c6.1-18.8,10.5-38.9,17.1-57.4.4-1.1.4-2.4,1.9-2.5l18,60h-37Z"/>
          <path class="st9" d="M621.2,162.6c-11.3-29.3-47.2-41-69.8-16.7.4-3-.3-8.8-3.7-9.8-2.5-.7-20.5-.6-23.9-.2-4.1.5-4.2,2.8-4.5,6.5v148c.5,2.6,2.1,3.3,4.5,3.6,4.5.5,18.9.7,23,0,1.1-.2,3.5-1.8,3.5-2.5v-52.5l11,7.5c51.2,18.3,75.5-43.1,59.8-83.8ZM574.9,221.8c-8.3,1.1-23-3-24.4-12.5-.7-5-.8-30.1.4-34.5,1.4-5.4,10.8-12.8,16.3-13.7,36.8-6.3,34.2,57.2,7.7,60.7Z"/>
          <path class="st9" d="M708.5,134.4c-15.3-3.9-29.6.2-39.5,12.5-1.6-3.7,1.6-8.9-3.4-10.5-3.4-1.1-17.4-.8-21.6-.5-4.9.4-5.2,1.9-5.5,6.5v148c.2,1.2.9,2.5,2,3,1.8.9,25.6.9,27,0,.4-.2,2-2.8,2-3v-52.5c11,10.7,21.9,14.4,37.2,10.7,47.3-11.5,50.7-101.8,1.8-114.2ZM698.7,219.6c-10.3,4.9-29,.6-30.3-12.2-.5-5.2-.8-28.6.5-32.6,1.7-5.5,10.5-12.7,16.3-13.7,15-2.6,25.9,6.4,27.3,21.3,1.2,12.9-.5,31-13.8,37.2Z"/>
        </g>
        <g>
          <g class="st11">
            <g>
              <g>
                <rect class="st1" x="724.7" y="117.8" width="135.7" height="46.5" transform="translate(71.4 498.6) rotate(-36.5)"/>
                <rect class="st7" x="751.8" y="154.7" width="135.7" height="40.7" transform="translate(56.4 521.4) rotate(-36.5)"/>
                <rect class="st0" x="767.7" y="193.6" width="135.7" height="40.7" transform="translate(36.4 538.5) rotate(-36.5)"/>
                <rect class="st4" x="790" y="227.5" width="135.7" height="40.7" transform="translate(20.7 558.4) rotate(-36.5)"/>
              </g>
              <g class="st8">
                <g class="st3">
                  <g class="st10">
                    <image class="st5" width="199" height="295" transform="translate(776.4 118.8) scale(.5)" xlink:href="LOGO_ZineApp-1.png"/>
                  </g>
                </g>
              </g>
            </g>
          </g>
          <path class="st9" d="M784.8,278.5c-.2-.2-3,0-4.2-.3-13.3-3.1-14.5-22.7-.2-25.7h87.9c11.3,3.3,12.5,18.5,2.5,24.4-2.1,1.2-6.6,1.3-7.5,2.5-.9,1.3-2.3,9.1-3.7,12.3-15.2,32.7-61.7,29.3-73-4.4-.6-1.9-1.5-8.4-1.8-8.7Z"/>
          <path class="st9" d="M862.9,101.7c.2.2,3,0,4.2.3,13.3,3.1,14.5,22.7.2,25.7h-87.9c-11.3-3.3-12.5-18.5-2.5-24.4,2.1-1.2,6.6-1.3,7.5-2.5.9-1.3,2.3-9.1,3.7-12.3,15.2-32.7,61.7-29.3,73,4.4.6,1.9,1.5,8.4,1.8,8.7Z"/>
        </g>
      </g>
    </g>
  </g>
</svg>