<?xml version="1.0" encoding="UTF-8"?>
<svg id="Layer_1" xmlns="http://www.w3.org/2000/svg" version="1.1" xmlns:xlink="http://www.w3.org/1999/xlink" viewBox="0 0 200.8 334.2">
  <!-- Generator: Adobe Illustrator 29.3.1, SVG Export Plug-In . SVG Version: 2.1.0 Build 151)  -->
  <defs>
    <style>
      .st0 {
        fill: #eb8050;
      }

      .st0, .st1, .st2, .st3, .st4, .st5 {
        stroke: #fef1d8;
      }

      .st0, .st2, .st3, .st4 {
        stroke-miterlimit: 10;
        stroke-width: 1px;
      }

      .st1, .st6 {
        fill: none;
      }

      .st1, .st5 {
        stroke-miterlimit: 10;
      }

      .st2 {
        fill: #f1a25b;
      }

      .st3 {
        fill: #ea824f;
      }

      .st7 {
        isolation: isolate;
      }

      .st8 {
        fill: #38403b;
      }

      .st9 {
        mix-blend-mode: soft-light;
        opacity: .7;
      }

      .st4 {
        fill: #fbc98b;
      }

      .st5 {
        fill: #39423d;
        stroke-width: .2px;
      }

      .st10 {
        clip-path: url(#clippath);
      }
    </style>
    <clipPath id="clippath">
      <rect class="st6" x="51.9" y="96.8" width="76.7" height="125"/>
    </clipPath>
    <clipPath id="clippath-1">
      <rect class="st6" x="49.6" y="96.8" width="81.3" height="125"/>
    </clipPath>
  </defs>
  <g class="st7">
    <g id="Layer_11" data-name="Layer_1">
      <path class="st8" d="M99.5,173.6c.6.3.6.6,0,1v-1Z"/>
      <g>
        <g>
          <g class="st10">
            <g>
              <g>
                <rect class="st0" x="-4.8" y="90.8" width="129.5" height="44.4" transform="translate(-55.4 57.7) rotate(-36.5)"/>
                <rect class="st2" x="21" y="126" width="129.5" height="38.9" transform="translate(-69.7 79.5) rotate(-36.5)"/>
                <rect class="st4" x="36.2" y="163.2" width="129.5" height="38.9" transform="translate(-88.8 95.8) rotate(-36.5)"/>
                <rect class="st3" x="57.5" y="195.5" width="129.5" height="38.9" transform="translate(-103.8 114.8) rotate(-36.5)"/>
              </g>
              <g class="st9">
                <rect class="st1" x="49.6" y="96.8" width="81.3" height="125"/>
              </g>
            </g>
          </g>
          <rect class="st1" x="51.9" y="96.8" width="76.7" height="125"/>
        </g>
        <path class="st5" d="M52.6,244.3c-.2-.2-2.9,0-4-.3-12.7-2.9-13.9-21.6-.2-24.6h83.9c10.8,3.2,11.9,17.7,2.4,23.3-2,1.2-6.3,1.3-7.1,2.4-.8,1.2-2.2,8.7-3.6,11.7-14.6,31.3-58.9,27.9-69.7-4.2-.6-1.8-1.4-8-1.7-8.3h0Z"/>
        <path class="st5" d="M127.2,75.4c.2.2,2.9,0,4,.3,12.7,2.9,13.9,21.6.2,24.6H47.4c-10.8-3.2-11.9-17.7-2.4-23.3,2-1.2,6.3-1.3,7.1-2.4.8-1.2,2.2-8.7,3.6-11.7,14.6-31.3,58.9-27.9,69.7,4.2.6,1.8,1.4,8,1.7,8.3Z"/>
      </g>
    </g>
  </g>
</svg>