<?xml version="1.0" encoding="UTF-8"?>
<svg width="24" height="24" viewBox="0 0 24 24" xmlns="http://www.w3.org/2000/svg">
  <path d="M8 4C5.79 4 4 5.79 4 8C4 9.2 4.5 10.3 5.4 11L4 12.5V14H6.5L8 12.5L9.5 14L12 11.5L14.5 14L16 12.5L17.6 14H20V12.5L18.6 11C19.5 10.3 20 9.2 20 8C20 5.79 18.21 4 16 4C14.8 4 13.7 4.5 13 5.4L12 6.5L11 5.4C10.3 4.5 9.2 4 8 4ZM8 6C8.5 6 9 6.2 9.4 6.6L12 9.2L14.6 6.6C15 6.2 15.5 6 16 6C17.1 6 18 6.9 18 8C18 8.5 17.8 9 17.4 9.4L16 10.8L17.4 12.2L16 13.6L14.6 12.2L12 14.8L9.4 12.2L8 13.6L6.6 12.2L8 10.8L6.6 9.4C6.2 9 6 8.5 6 8C6 6.9 6.9 6 8 6Z" fill="#FF6B00"/>
</svg>
