<?xml version="1.0" encoding="UTF-8"?>
<svg width="350" height="358" viewBox="0 0 350 358" xmlns="http://www.w3.org/2000/svg">
  <!-- Coin background -->
  <rect fill="#2e3c41" stroke="#d2ff4d" stroke-width="3" stroke-linecap="round" stroke-linejoin="round" x="10.6" y="14.4" width="328.7" height="328.7" rx="164.4" ry="164.4"/>
  
  <!-- Coin symbol -->
  <g>
    <!-- Coin stripes -->
    <g>
      <polygon fill="#d2ff4d" points="114.2,188.2 90.9,155.9 182.7,86.4 206,118.6 114.2,188.2"/>
      <polygon fill="#74b2bb" points="135.5,215.5 115.2,187.3 207,117.8 227.4,146 135.5,215.5"/>
      <polygon fill="#d2ff4d" points="148.9,249.1 128.6,220.8 220.4,151.3 240.8,179.5 148.9,249.1"/>
      <polygon fill="#74b2bb" points="167.7,278.3 147.3,250.1 239.2,180.5 259.6,208.8 167.7,278.3"/>
    </g>
    
    <!-- Coin outline bottom -->
    <path fill="#d2ff4d" d="M218.3,236.8c3.6,1.2,6.1,4.2,6.6,8.1c0.4,3.3-0.7,7.8-5.2,10.4c-0.5,0.3-1.9,0.6-2.9,0.8c-2.2,0.5-4.3,0.9-5.4,2.6c-0.7,1-1.1,2.7-2,6c-0.6,2.3-1.3,5.2-2,6.5c-6,13-18,20.7-32.1,20.7c-15.8,0-29.3-9.7-34.3-24.8c-0.3-0.8-0.7-3.2-0.9-4.8c-0.6-3.5-0.7-4.2-1.5-5c-1-1-2.1-1-3.7-1c-0.5,0-1.6,0-1.9-0.1c-5.6-1.3-8-6.1-8-10.3c0-3.6,2-7.9,7.5-9.2l85.9,0M218.7,233.8l-86.7,0c-14.1,3-13,22.3,0.2,25.4c1.1,0.3,3.9,0.1,4.1,0.3c0.3,0.3,1.1,6.7,1.7,8.6c5.9,17.6,21.5,26.8,37.1,26.8c13.9,0,27.8-7.3,34.8-22.5c1.4-3.1,2.8-10.8,3.7-12.1c0.8-1.2,5.3-1.3,7.4-2.5c9.9-5.8,8.7-20.7-2.4-24h0Z"/>
    
    <!-- Coin outline top -->
    <path fill="#d2ff4d" d="M175.3,65.7c14.1,0,26.1,7.7,32.1,20.7c0.6,1.4,1.4,4.2,2,6.5c0.9,3.4,1.3,5,2,6c1.1,1.6,3.2,2.1,5.4,2.6c1,0.2,2.4,0.5,2.9,0.8c4.4,2.6,5.6,7,5.2,10.4c-0.5,3.9-2.9,6.9-6.6,8.1l-85.9,0c-5.5-1.3-7.4-5.6-7.5-9.2c0-4.2,2.4-9,8-10.3c0.3-0.1,1.3-0.1,1.9-0.1c1.7,0,2.8,0,3.7-1c0.8-0.8,0.9-1.5,1.5-5c0.3-1.6,0.7-4,0.9-4.8c5-15.1,18.5-24.8,34.3-24.8M175.3,62.7c-15.6,0-31.3,9.2-37.1,26.8c-0.6,1.9-1.4,8.3-1.7,8.6c-0.2,0.2-3,0-4.1,0.3c-13.2,3-14.3,22.3-0.2,25.4l86.7,0c11.1-3.3,12.3-18.3,2.4-24c-2-1.2-6.5-1.3-7.4-2.5c-0.9-1.3-2.3-9-3.7-12.1c-7.1-15.2-20.9-22.5-34.8-22.5h0Z"/>
  </g>
</svg>
