<?xml version="1.0" encoding="UTF-8"?>
<svg width="824" height="295" viewBox="0 0 824 295" xmlns="http://www.w3.org/2000/svg">
  <!-- Z letter -->
  <path fill="#d2ff4d" stroke="#d2ff4d" stroke-width="2" stroke-miterlimit="10" d="M69.2,172.8h65.4c0.2,0,2.6,2.4,2.9,2.9c0.9,1.8,0.9,21.9,0,23.9c-0.3,0.8-2.2,2.4-3,2.7l-102,0.2c-1.7,0.2-4.1-1.5-4.7-2.9c-1-2.2-0.8-17.2-0.5-20.6c0.1-1.4,0-2.8,0.8-4c19.1-28.1,42.6-54.8,61.2-83c1.2-1.8,3-3.8,3-6H31.5c-0.3,0-2.2-1.1-2.5-1.6c-1.3-2.1-1.3-20.1-0.9-23.7c0.3-3.1,1.4-5.2,4.5-6l95.3-0.2c2.5,0.1,4.9,1.3,5.8,3.8c1,3.2,0.8,17.6,0.5,21.6c-0.1,1.4,0,2.8-0.8,4c-18.6,27-39.4,52.5-58.3,79.2c-2.1,3-5.1,6.4-5.9,9.9Z"/>
  
  <!-- I letter -->
  <path fill="#d2ff4d" stroke="#d2ff4d" stroke-width="2" stroke-miterlimit="10" d="M158.6,96.5c2.1-0.6,21.2-0.6,23.7-0.2c2.1,0.4,2.6,1.7,3.1,3.6l0.3,98.2c0.1,1.7-0.9,3.6-2.6,4.1c-2.1,0.6-21.2,0.6-23.7,0.2c-2.1-0.4-2.6-1.7-3.1-3.6l-0.3-98.2c-0.1-1.7,0.9-3.6,2.6-4.1Z"/>
  
  <!-- I dot -->
  <path fill="#d2ff4d" stroke="#d2ff4d" stroke-width="2" stroke-miterlimit="10" d="M168.2,48.9c15.3-2.5,28.1,15.1,19.2,28.8c-11.3,17.4-39,6.1-34.8-13.8c1.6-7.4,8.1-13.8,15.5-15Z"/>
  
  <!-- N letter -->
  <path fill="#d2ff4d" stroke="#d2ff4d" stroke-width="2" stroke-miterlimit="10" d="M206.7,98.8c0.2-0.9,2.3-2.2,3.4-2.4c2.5-0.4,18.7-0.4,20.8,0.2c4.3,1.3,3.5,6.5,3.5,9.9c0,0.8-0.4,3.3,1.4,2.4c2.1-1.1,6.1-6.7,8.6-8.6c13.3-10.2,35.9-7.7,47.3,4.3c14.2,14.9,10,38.4,10.4,57.4c0.2,11.6,1.9,23.6,1,35.3c-0.2,2.6-0.2,4.7-3.4,5.2c-3.5,0.6-19.4,0.6-22.9,0c-5.3-0.9-3.1-10.5-3.3-14.8c-0.1-1.9-0.9-3.6-1-5.7c-0.6-16.1,0.7-32.4-0.2-48.5c-7.9-19-31-12-36.8,4.8c-1.9,19.1,1.9,41.3-0.2,60c-0.2,2.3-0.9,3.8-3.4,4.2c-2.7,0.4-21.8,0.3-23.4-0.5c-0.4-0.2-1.9-1.8-1.9-1.9v-101.2Z"/>
  
  <!-- A letter -->
  <path fill="none" stroke="#d2ff4d" stroke-width="3" stroke-linecap="round" stroke-linejoin="round" d="M450.2,197.1l-47.1-136.4c-0.8-2.2-2.6-5-5.1-5.5l-33.2,0.2c-3.8,1.1-7.8,15.2-9.3,19.4c-14.3,39.7-27.2,80-41.8,119.6c-0.7,3.2-0.7,7.3,3.1,7.9c6.4-1.1,22.2,1.8,27.2-0.5c4.8-2.2,8.8-28.6,11.1-29.2c16.4,1.2,34.4-1.4,50.5,0c0.8,0.1,1.7,0,2.4,0.5c2.5,1.7,5.9,24.6,9.8,28c3.3,2.9,23.4,0.4,28.9,1.2c2.7-0.5,3.7-2.7,3.4-5.2ZM364.2,145.1c5.8-17.9,10.1-37.1,16.3-54.9c0.4-1,0.4-2.3,1.9-2.4l17.2,57.3h-35.3Z"/>
  
  <!-- P letter -->
  <path fill="none" stroke="#d2ff4d" stroke-width="3" stroke-linecap="round" stroke-linejoin="round" d="M555.9,121.9c-10.8-28-45-39.1-66.6-16c0.4-2.9-0.3-8.4-3.5-9.4c-2.4-0.7-19.6-0.6-22.8-0.2c-3.9,0.5-4,2.7-4.3,6.2l0.1,141.3c0.4,2.5,1.9,3.2,4.2,3.4c4.2,0.5,18.1,0.6,22,0c1.1-0.2,3.4-1.7,3.4-2.4v-50.1l10.5,7.2c48.9,17.5,72.1-41.2,57.1-80ZM511.7,178.4c-7.9,1-21.9-2.8-23.3-11.9c-0.7-4.8-0.7-28.8,0.4-32.9c1.4-5.1,10.3-12.2,15.5-13.1c35.1-6,32.6,54.6,7.4,58Z"/>
  
  <!-- P letter -->
  <path fill="none" stroke="#d2ff4d" stroke-width="3" stroke-linecap="round" stroke-linejoin="round" d="M639.2,94.9c-14.6-3.7-28.3,0.2-37.7,12c-1.5-3.6,1.6-8.5-3.3-10.1c-3.2-1-16.6-0.8-20.6-0.4c-4.7,0.4-5,1.8-5.3,6.2l0.1,141.3c0.1,1.2,0.8,2.4,1.9,2.9c1.7,0.9,24.5,0.8,25.8,0c0.4-0.2,1.9-2.7,1.9-2.9v-50.1c10.5,10.2,20.9,13.8,35.5,10.2c45.1-10.9,48.4-97.2,1.7-109.1ZM629.9,176.3c-9.9,4.7-27.7,0.6-28.9-11.7c-0.5-5-0.7-27.3,0.4-31.1c1.6-5.3,10-12.2,15.5-13.1c14.3-2.4,24.7,6.1,26,20.3c1.2,12.3-0.5,29.6-13.1,35.6Z"/>
  
  <!-- Coin symbol -->
  <g>
    <!-- Coin outline -->
    <path fill="#d2ff4d" d="M785.8,213.5c4.4,1.5,7.3,5,7.9,9.7c0.5,4-0.9,9.3-6.1,12.4c-0.7,0.4-2.2,0.7-3.5,1c-2.6,0.6-4.8,1-5.9,2.8c-0.8,1.1-1.3,3-2.2,6.8c-0.7,2.7-1.5,6-2.3,7.6c-7,15.1-21,24.1-37.3,24.1c-18.4,0-34-11.3-39.9-28.8c-0.3-0.9-0.8-3.6-1.1-5.5c-0.7-3.9-0.8-4.6-1.6-5.5c-1-1-2.1-1-4-1.1c-0.7,0-1.9,0-2.3-0.1c-6.7-1.5-9.6-7.3-9.6-12.2c0-4.3,2.4-9.4,9-11l98.9,0M786.3,210.5l-99.6,0c-16.2,3.5-14.9,25.6,0.2,29.2c1.3,0.3,4.5,0.1,4.8,0.3c0.3,0.4,1.3,7.7,2,9.9c6.8,20.2,24.7,30.9,42.7,30.9c16,0,31.9-8.4,40-25.8c1.7-3.6,3.2-12.4,4.2-13.9c1-1.4,6.1-1.5,8.5-2.9c11.4-6.6,10-23.9-2.8-27.6h0Z"/>
    
    <!-- Coin top -->
    <path fill="#d2ff4d" d="M736.3,16.8c16.3,0,30.3,9,37.3,24.1c0.7,1.6,1.6,4.9,2.3,7.6c1,3.8,1.5,5.7,2.2,6.8c1.2,1.7,3.4,2.2,5.9,2.8c1.2,0.3,2.8,0.6,3.5,1c5.3,3.1,6.6,8.4,6.1,12.4c-0.6,4.6-3.5,8.2-7.9,9.7l-98.9,0c-6.6-1.5-8.9-6.7-9-11c0-5,2.9-10.7,9.6-12.2c0.4-0.1,1.6-0.1,2.3-0.1c1.9,0,3,0,4-1.1c0.8-0.8,0.9-1.5,1.6-5.5c0.3-1.9,0.8-4.6,1.1-5.5c5.9-17.5,21.5-28.8,39.9-28.8M736.3,13.8c-18,0-35.9,10.6-42.7,30.9c-0.7,2.2-1.7,9.5-2,9.9c-0.2,0.2-3.4,0-4.8,0.3c-15.1,3.5-16.5,25.7-0.2,29.2l99.6,0c12.8-3.8,14.2-21,2.8-27.6c-2.3-1.4-7.5-1.5-8.5-2.9c-1-1.4-2.6-10.3-4.2-13.9c-8.1-17.5-24.1-25.8-40-25.8h0Z"/>
    
    <!-- Coin stripes -->
    <g>
      <polygon fill="#d2ff4d" points="666,158 639.3,121 744.9,41 771.6,78.1 666,158"/>
      <polygon fill="#74b2bb" points="690.6,189.5 667.2,157.1 772.8,77.1 796.2,109.6 690.6,189.5"/>
      <polygon fill="#d2ff4d" points="706,228.1 682.6,195.6 788.2,115.6 811.6,148.1 706,228.1"/>
      <polygon fill="#74b2bb" points="727.6,261.7 704.2,229.2 809.8,149.3 833.2,181.7 727.6,261.7"/>
    </g>
  </g>
</svg>
