<?xml version="1.0" encoding="UTF-8"?>
<svg width="400" height="100" viewBox="0 0 400 100" xmlns="http://www.w3.org/2000/svg">
  <!-- Z letter -->
  <path fill="#d2ff4d" stroke="#d2ff4d" stroke-width="2" stroke-miterlimit="10" d="M69.2,72.8h65.4c0.2,0,2.6,2.4,2.9,2.9c0.9,1.8,0.9,21.9,0,23.9c-0.3,0.8-2.2,2.4-3,2.7l-102,0.2c-1.7,0.2-4.1-1.5-4.7-2.9c-1-2.2-0.8-17.2-0.5-20.6c0.1-1.4,0-2.8,0.8-4c19.1-28.1,42.6-54.8,61.2-83c1.2-1.8,3-3.8,3-6H31.5c-0.3,0-2.2-1.1-2.5-1.6c-1.3-2.1-1.3-20.1-0.9-23.7c0.3-3.1,1.4-5.2,4.5-6l95.3-0.2c2.5,0.1,4.9,1.3,5.8,3.8c1,3.2,0.8,17.6,0.5,21.6c-0.1,1.4,0,2.8-0.8,4c-18.6,27-39.4,52.5-58.3,79.2c-2.1,3-5.1,6.4-5.9,9.9Z" transform="scale(0.5) translate(0, 0)"/>
  
  <!-- I letter -->
  <path fill="#d2ff4d" stroke="#d2ff4d" stroke-width="2" stroke-miterlimit="10" d="M158.6,96.5c2.1-0.6,21.2-0.6,23.7-0.2c2.1,0.4,2.6,1.7,3.1,3.6l0.3,98.2c0.1,1.7-0.9,3.6-2.6,4.1c-2.1,0.6-21.2,0.6-23.7,0.2c-2.1-0.4-2.6-1.7-3.1-3.6l-0.3-98.2c-0.1-1.7,0.9-3.6,2.6-4.1Z" transform="scale(0.5) translate(0, 0)"/>
  
  <!-- I dot -->
  <path fill="#d2ff4d" stroke="#d2ff4d" stroke-width="2" stroke-miterlimit="10" d="M168.2,48.9c15.3-2.5,28.1,15.1,19.2,28.8c-11.3,17.4-39,6.1-34.8-13.8c1.6-7.4,8.1-13.8,15.5-15Z" transform="scale(0.5) translate(0, 0)"/>
  
  <!-- N letter -->
  <path fill="#d2ff4d" stroke="#d2ff4d" stroke-width="2" stroke-miterlimit="10" d="M206.7,98.8c0.2-0.9,2.3-2.2,3.4-2.4c2.5-0.4,18.7-0.4,20.8,0.2c4.3,1.3,3.5,6.5,3.5,9.9c0,0.8-0.4,3.3,1.4,2.4c2.1-1.1,6.1-6.7,8.6-8.6c13.3-10.2,35.9-7.7,47.3,4.3c14.2,14.9,10,38.4,10.4,57.4c0.2,11.6,1.9,23.6,1,35.3c-0.2,2.6-0.2,4.7-3.4,5.2c-3.5,0.6-19.4,0.6-22.9,0c-5.3-0.9-3.1-10.5-3.3-14.8c-0.1-1.9-0.9-3.6-1-5.7c-0.6-16.1,0.7-32.4-0.2-48.5c-7.9-19-31-12-36.8,4.8c-1.9,19.1,1.9,41.3-0.2,60c-0.2,2.3-0.9,3.8-3.4,4.2c-2.7,0.4-21.8,0.3-23.4-0.5c-0.4-0.2-1.9-1.8-1.9-1.9v-101.2Z" transform="scale(0.5) translate(0, 0)"/>
</svg>
